<svg xmlns="http://www.w3.org/2000/svg" xmlns:xlink="http://www.w3.org/1999/xlink" viewBox="0 0 526 565" height="565" width="526">
    <defs/>
    <path fill="none" d="M253.8,43.9
C253.8,50.7,252,55.9,248.4,59.5
C244.8,63.1,239.7,64.9,233.2,64.9
C226.6,64.9,214.1,56,195.6,38.2
C177.2,20.4,167.9,9.8,167.9,6.4
C167.9,0,177.1,0,195.3,0
C213.5,0,227.9,0,238.2,11.8
C248.6,19.6,253.8,30.3,253.8,43.9z
M71.2,101.1
C84.4,101.1,125.1,96.3,193.4,86.5
L327,68.1
C347.8,64.7,362.5,61.7,371.2,59.2
C379.9,56.6,385.9,55.3,389.3,55.3
C399.9,55.3,416.3,62.4,438.3,76.7
C460.4,90.9,471.4,101.9,471.4,109.7
C471.4,117.6,465.3,121.8,453.3,122.5
C441.2,123.1,428.1,125.4,414.1,129.5
C400.1,133.5,389.6,137.5,382.6,141.5
C375.7,145.6,370.8,147.6,368,147.6
C365.3,147.6,363.9,146.4,363.9,144.1
C363.9,141.8,367.3,135.1,374.1,124.1
C380.8,113,384.2,104.3,384.2,98
C384.2,91.6,378.1,88.4,365.8,88.4
C353.5,88.4,327.5,90.5,287.9,94.8
C248.2,99,211.5,104,177.8,109.7
C144.1,115.5,120.2,118.3,106.2,118.3
C92.2,118.3,80.6,117.3,71.2,115.1
C67.9,130,59.9,147.1,47.4,166.4
C34.9,185.7,24.2,195.3,15.3,195.3
C0,195.3,0,185.8,0,166.7
C0,161.2,0,156.3,0,152
C6.9,147.8,10.9,143.1,16.2,138
C21.5,133,26.9,124.9,32.4,113.9
C38,102.8,42.2,93.2,45.2,84.9
C48.1,76.7,51.5,72.5,55.3,72.5
C60.9,72.5,66.2,82.1,71.2,101.1z
M183.8,194.7
C175.8,195.5,165.9,195.9,154.3,195.9
C142.6,195.9,132.5,194.3,124.1,191.2
C115.6,188,111.3,184.7,111.3,181.3
C111.3,177.9,116.7,175.8,127.5,174.9
C138.4,174.1,158.8,171,188.9,165.7
C219.1,160.4,241,156,254.8,152.4
C268.6,148.8,278.6,147,285,147
C291.4,147,297.6,148.4,303.8,151.4
C309.9,154.4,313,158.1,313,162.5
C313,167,306.2,171.3,292.6,175.6
C279.1,179.8,248.1,185.5,199.8,192.8
C210.4,202.9,215.7,210.8,215.7,216.3
C215.7,220.1,211.7,223.6,203.9,226.8
C196,230,180.7,238.3,157.8,251.9
C179.4,264.6,197.2,281.5,211.2,303.4
C211.6,304.3,212.4,305.6,213.4,307.3
C214.5,309,215.2,310.2,215.7,311.1
C271.6,262.7,300.7,229,302.8,209.9
C303.7,201.9,307.2,197.8,313.3,197.8
C319.5,197.8,327.8,202.3,338.4,211.2
C349,220.1,354.3,226.7,354.3,230.9
C354.3,235.2,351.6,238.6,346.1,241.1
C334.2,246.6,301.1,268.9,246.8,307.9
C255.7,310.4,262.3,313,266.6,315.5
C321.7,351.6,363,375.2,390.6,386.5
C418.2,397.7,457.2,407.6,507.7,416
C518.3,417.7,523.6,420.3,523.6,423.7
C523.6,425.8,521.6,427.6,517.8,429.1
C514,430.6,496.9,433.9,466.6,438.9
C436.3,444,416.6,446.6,407.5,446.6
C398.3,446.6,389.5,443.8,381.1,438.3
C372.6,432.8,354.4,416.8,326.7,390.3
C298.9,363.8,279.2,345.8,267.5,336.2
C255.8,326.7,245.3,319.8,236,315.5
C231.8,318.9,227.5,321.9,223.3,324.4
C243.2,364.3,253.2,402.1,253.2,437.7
C253.2,459.3,251.7,477.2,248.7,491.4
C245.8,505.6,240,519.1,231.6,531.8
C223.1,544.6,216.1,552.9,210.6,557
C205.1,561,200,563,195.3,563
C190.6,563,186.8,560.9,183.8,556.6
C174.5,541.8,159.5,526.3,138.7,510.2
C135.7,508.1,134.2,505.6,134.2,502.9
C134.2,500.1,139.1,499.4,148.9,500.7
C158.6,501.9,168.9,502.6,179.7,502.6
C190.5,502.6,198.6,499.7,203.9,494
C209.2,488.3,212.8,478.1,214.7,463.4
C216.6,448.8,217.6,433.5,217.6,417.6
C217.6,401.7,215,382.8,209.9,360.7
C177.7,401.8,140.2,432.5,97.3,452.6
C54.5,472.8,24.6,482.8,7.6,482.8
C0,482.8,0,481.5,0,478.7
C0,476,0,473.5,9.5,471.4
C43.5,456.5,78.8,436.1,115.5,410
C152.1,383.9,181.1,358.2,202.3,332.7
C197.2,317.4,190.4,304.3,181.9,293.3
C158.2,327.6,132.4,351.7,104.6,365.5
C76.9,379.3,57.9,386.1,47.7,386.1
C44.3,386.1,42.6,385.1,42.6,383
C42.6,380.8,45,378.3,49.6,375.3
C101.8,346.5,140,312.1,164.1,272.3
C156.9,265.9,151.2,261.2,147,258.3
C100.7,284.2,65.7,297.1,42,297.1
C35.2,297.1,31.8,295.6,31.8,292.6
C31.8,289.7,34.8,287.1,40.7,285
C76.3,271.4,109,255.2,138.7,236.3
C168.4,217.5,183.4,203.6,183.8,194.7z" transform="translate(1,1)" id="shape1" stroke="#3498db"/>
</svg>
